<svg width="31" height="43" viewBox="0 0 31 43" fill="none" xmlns="http://www.w3.org/2000/svg">
<path fill-rule="evenodd" clip-rule="evenodd" d="M18.4361 1.28545C18.1485 0.806139 17.7171 0.374759 17.094 0.326828L17.2857 0.614415L17.3816 0.806139L17.7171 1.42924L17.8129 1.52511C18.0526 2.10028 18.1964 2.67545 18.2443 3.29856C18.2443 3.63407 18.1485 3.92166 18.0526 4.25718C17.9088 3.44235 17.4774 2.81924 16.9981 2.24407C16.4894 1.72332 15.8656 1.32929 15.1767 1.09373C14.2324 0.718461 13.1973 0.634981 12.205 0.85407C11.8216 0.902001 11.486 1.09373 11.1026 1.28545C10.7671 1.47717 10.4795 1.76476 10.1919 2.00442C9.49568 2.69657 8.95627 3.5302 8.61018 4.4489C8.32259 5.16787 7.98707 5.88683 7.55569 6.55787C7.22018 7.13304 6.74087 7.66028 6.26156 8.09166L4.91948 9.00236C4.13142 9.49813 3.36389 10.0258 2.61879 10.5841C1.51638 11.5427 0.701548 12.8368 0.270168 14.2748C0.078444 14.9937 -0.0653493 15.7606 0.0305129 16.4796C0.126375 16.8631 0.222237 17.1986 0.413962 17.5341V17.9175C0.222237 18.8282 0.174306 19.7868 0.461893 20.6975C0.777391 21.7726 1.3164 22.769 2.04362 23.6213L2.71465 24.532C3.00224 25.0113 3.2419 25.5386 3.28983 26.1138C3.28983 26.5451 3.14603 26.9286 2.81052 27.2162C2.55258 27.4428 2.23721 27.594 1.89901 27.6531C1.56081 27.7123 1.21284 27.6772 0.893273 27.5517L0.653617 27.4079L0.461893 27.312L0.413962 27.4079C0.366031 27.4558 0.318099 27.5517 0.366031 27.6475L0.701548 28.2707C0.989135 28.6541 1.32465 28.9417 1.75603 29.1334C2.09155 29.3251 2.475 29.3731 2.85845 29.2772C3.0981 29.2293 3.28983 29.1334 3.48155 28.9896C3.48155 29.4689 3.62534 29.9482 3.76914 30.3796C3.96086 30.9069 4.24845 31.4341 4.67983 31.8176C5.06328 32.201 5.54259 32.3927 6.0219 32.5365C6.45328 32.6803 6.88466 32.6803 7.31604 32.5844C7.4119 32.5365 7.4119 32.4886 7.4119 32.3927L7.26811 32.0572L7.22018 31.9613L6.83673 31.0027C7.69949 31.6258 8.70604 31.9134 9.76052 32.0093C10.4316 32.0572 11.1505 31.9613 11.7736 31.7217C11.9174 31.6738 12.1091 31.5779 12.1571 31.4341C12.2529 31.2903 12.1571 31.1465 12.1091 31.0027L11.9174 30.2838L11.8695 30.14C12.3009 30.4276 12.7323 30.6193 13.2595 30.6193C13.8347 30.6193 14.4578 30.3796 14.7933 29.9003L14.9371 29.8524C14.6973 27.7382 14.1983 25.6615 13.4512 23.6693C13.1272 22.8043 12.7261 21.9701 12.2529 21.1769L12.1571 20.8893C12.1571 20.1703 12.0612 19.3555 11.6298 18.7803C11.9654 18.2531 12.0133 17.582 12.0612 17.0068C12.0612 16.5275 12.0612 16.0482 11.8216 15.6168L12.0133 15.5689L12.3967 15.521C12.4926 15.4731 12.5405 15.3293 12.5885 15.2334C12.9094 13.9013 13.3923 12.6136 14.0264 11.3989L14.3619 10.7279C14.4578 10.5841 14.4578 10.4403 14.5057 10.2486V10.0568L14.4098 9.3858L14.3619 8.95442L15.3205 9.24201H15.7998C18.2223 8.82497 20.6924 8.76039 23.1333 9.05029L23.4688 9.14615L23.7085 9.24201C23.8043 9.24201 23.9481 9.19408 23.9961 9.09822C24.1399 8.95442 24.1878 8.7627 24.2357 8.57098L24.3795 8.66684L24.8109 9.00236L25.1464 9.19408C25.3675 9.2354 25.5927 9.25148 25.8174 9.24201L26.5843 10.0089L26.6323 10.0568C27.6424 11.2118 28.5112 12.4829 29.2205 13.8434C29.4123 13.9872 29.6519 13.8913 29.7478 13.6996C30.0833 12.9327 30.1312 12.0699 29.9874 11.2551C29.7212 10.038 29.085 8.93303 28.1661 8.09166C27.8785 7.75615 27.495 7.46856 27.1116 7.18097L25.0985 6.12649C24.0919 5.69511 23.0374 5.35959 21.983 5.16787C20.7847 4.92821 19.5864 4.92821 18.3402 4.97614C18.8674 4.4489 19.0112 3.72994 19.0112 3.01097C19.0112 2.38786 18.7716 1.81269 18.4361 1.28545ZM6.06983 9.81718C6.645 9.14615 7.22018 8.47511 7.65156 7.66028L6.88466 8.47511C6.40535 8.90649 5.87811 9.19408 5.35086 9.5296L4.82362 9.86512L4.67983 9.91305C4.05672 10.2965 3.38569 10.7279 2.85845 11.2072C1.80396 12.1179 1.085 13.3641 0.749479 14.7062C0.605686 15.4251 0.509824 16.192 0.701548 16.911C0.989135 16.0482 1.42051 15.1855 1.89983 14.4186C2.52293 13.4599 3.28983 12.5493 4.10466 11.7344L5.01535 10.8237L6.06983 9.81718Z" fill="#262626"/>
<path d="M19.8258 5.64839C21.1678 5.69632 22.5099 5.93597 23.852 6.36735C25.7281 6.89701 27.3994 7.98335 28.6451 9.48287C29.5558 10.6812 30.131 12.1191 30.3227 13.6049C30.5814 15.2062 30.6136 16.8358 30.4185 18.446L30.1789 20.0756L29.9872 21.0343C29.9392 21.1301 29.9392 21.1301 29.8434 21.1301C29.7475 20.9384 29.7475 20.7467 29.7475 20.555C29.6996 19.836 29.7954 19.165 29.8434 18.446C29.8913 17.2956 29.9872 16.1453 29.8913 14.995L29.6037 12.8381C29.2682 11.496 28.6451 10.2498 27.6865 9.24322C26.8237 8.38046 25.7692 7.66149 24.6668 7.18218C23.6123 6.7508 22.5578 6.46322 21.4554 6.27149C20.5927 6.1277 19.7299 6.07977 18.8671 6.07977C16.7403 6.04494 14.6361 6.52165 12.732 7.46977C12.1089 7.90115 11.5337 8.42839 11.0544 9.00356C9.57951 10.9396 8.66731 13.245 8.41817 15.666C8.37024 16.8163 8.41817 17.9187 8.80162 19.0212L9.13713 19.7401L9.71231 19.7881L9.76024 19.9319C9.61644 20.0277 9.42472 20.0277 9.233 20.0756C8.75368 20.1715 8.27437 20.3632 7.84299 20.6508C7.50748 20.8905 7.17196 21.1781 6.98023 21.5615C6.74058 22.0408 6.83644 22.616 6.9323 23.1432C7.17196 24.0539 7.74713 24.9167 8.51403 25.4919C9.04127 25.9232 9.71231 26.1629 10.3833 26.2588C10.8627 26.3546 11.342 26.2588 11.8213 26.2108C12.0609 26.4025 12.2047 26.786 12.3485 27.0257L13.2113 28.3198C13.991 29.428 15.0968 30.2657 16.3747 30.7163C17.4292 31.1477 18.5316 31.3874 19.634 31.627L21.5992 32.0105L22.414 32.2501V32.4419H21.8389C20.7614 32.3818 19.6888 32.2537 18.6275 32.0584C17.2021 31.7748 15.8386 31.2391 14.6013 30.4767C14.074 30.1412 13.5947 29.7098 13.2113 29.1826C13.5433 31.1803 13.2764 33.2317 12.4444 35.0781C11.7254 36.3722 10.5271 37.3788 9.0892 37.8102C8.94541 37.8581 8.75368 37.906 8.60989 37.8581C8.51403 37.8581 8.51403 37.8102 8.51403 37.7143C8.56196 37.5705 8.70575 37.4746 8.80162 37.4267C9.37679 37.0433 10.0478 36.7557 10.623 36.3243C11.2461 35.797 11.7733 35.2219 12.1089 34.5029C12.3964 33.7839 12.5882 32.9691 12.684 32.1543C12.7799 31.5312 12.8278 30.9081 12.7799 30.237L12.5882 28.4157L11.7254 26.6901L10.8147 26.8819C10.1111 26.9023 9.41361 26.7464 8.78571 26.4283C8.15782 26.1101 7.61953 25.6399 7.21989 25.0605C6.59509 24.2689 6.25715 23.2889 6.26127 22.2805C6.26127 21.8491 6.40506 21.4177 6.64472 21.0822C6.88437 20.7467 7.21989 20.4591 7.55541 20.2674C7.79506 20.0756 8.13058 19.9798 8.41817 19.8839L7.98679 18.7336C7.74713 17.6791 7.74713 16.5767 7.89092 15.5222C8.2048 12.9047 9.25152 10.4291 10.9106 8.38046C11.342 7.90115 11.7733 7.46977 12.3006 7.13425C12.6361 6.94253 12.9716 6.8946 13.2592 6.70287C15.3202 5.79218 17.573 5.50459 19.8258 5.64839Z" fill="#262626"/>
<path d="M18.8669 6.07847C20.8585 6.00439 22.8411 6.38124 24.6666 7.18088C25.769 7.66019 26.8235 8.37916 27.6862 9.24192C28.6449 10.2485 29.268 11.4947 29.6035 12.8368L29.8911 14.9936C29.9869 16.144 29.8911 17.2943 29.8431 18.4447C29.7952 19.1637 29.6993 19.8347 29.7473 20.5537C29.7473 20.7454 29.7473 20.9371 29.8431 21.1288L29.7952 22.0875C29.6993 22.3271 29.6993 22.5668 29.6993 22.8543C29.6035 24.0047 29.6035 25.203 29.4118 26.4012C29.3638 26.9764 29.268 27.5995 29.0283 28.1268C28.8845 28.5581 28.6449 28.9416 28.3093 29.2771C27.7342 29.9002 27.0152 30.4275 26.2483 30.8588C25.3376 31.3861 24.379 31.6257 23.4683 32.0092C23.2286 32.105 22.989 32.2009 22.8452 32.3926C23.2286 32.4406 23.5642 32.3926 23.9476 32.2968C23.708 32.8719 23.66 33.4471 23.66 34.0223C23.66 34.2619 23.6121 34.5495 23.708 34.7892C23.8517 35.0288 24.0914 35.2206 24.3311 35.3644L26.0086 35.9875C27.0631 36.3709 28.0697 36.8502 29.1242 37.2816C29.22 37.4733 29.3638 37.6171 29.4118 37.8568C29.6993 38.384 29.7473 38.9592 29.5555 39.5344C29.3159 40.1575 28.8366 40.6847 28.2614 41.0202C27.4945 41.5475 26.5359 41.9309 25.6252 42.1706C21.8983 42.9668 18.0343 42.8517 14.3614 41.8351C13.4028 41.4995 12.4441 41.164 11.5814 40.6847C10.9104 40.3013 10.1914 39.822 9.66414 39.1988C9.37656 38.8154 9.1369 38.2882 9.08897 37.8088C10.2113 37.4663 11.2046 36.794 11.9398 35.8793C12.6749 34.9647 13.1179 33.85 13.211 32.6802C13.4028 31.5299 13.4028 30.3316 13.211 29.1813C13.5945 29.7085 14.0738 30.1399 14.601 30.4754L15.8952 31.1464C17.7743 31.9571 19.7926 32.3966 21.8386 32.4406H22.4138V32.2488L21.599 32.0092L19.6338 31.6257C18.5314 31.3861 17.429 31.1464 16.3745 30.715C15.7514 30.4275 15.0804 30.0919 14.5052 29.7085C14.0259 29.2771 13.5945 28.8457 13.211 28.3185L12.3483 27.0244C12.2045 26.7847 12.0607 26.4012 11.821 26.2095C11.3417 26.2575 10.8624 26.3533 10.3831 26.2575C9.71207 26.1616 9.04104 25.9219 8.5138 25.4906C7.74786 24.898 7.19321 24.0744 6.93207 23.1419C6.83621 22.6147 6.74035 22.0395 6.98 21.5602C7.17173 21.1768 7.50724 20.8892 7.84276 20.6495C8.27414 20.3619 8.75345 20.1702 9.23276 20.0743C9.42449 20.0264 9.61621 20.0264 9.76 19.9306L9.71207 19.7868L9.1369 19.7388L8.80138 19.0199C8.41793 17.9174 8.37 16.815 8.46587 15.6647C8.70098 13.2485 9.59642 10.9435 11.0541 9.00226C11.5335 8.42709 12.1086 7.89985 12.7317 7.46847C14.6318 6.50376 16.7361 6.01056 18.8669 6.03054V6.07847Z" fill="#FFDECC"/>
<path d="M8.56299 21.7982C8.75471 21.7982 8.89851 21.7982 9.09023 21.894C9.32989 21.942 9.61747 22.0858 9.76127 22.2775C9.85713 22.4213 9.85713 22.613 9.76127 22.7568C9.52161 23.0444 9.18609 23.2361 8.99437 23.5237C9.28195 23.7154 9.6654 23.8113 10.0009 23.9551C10.1926 24.003 10.3844 24.0989 10.5282 24.2427L10.5761 24.3865L10.1926 24.2906L9.0423 23.9551C8.85057 23.9072 8.65885 23.8113 8.61092 23.6196C8.56299 23.4758 8.65885 23.2841 8.75471 23.1403L9.47368 22.5172C9.28195 22.1816 8.75471 22.1337 8.56299 21.7982ZM29.7965 22.0858L29.8923 22.2296L29.9882 22.9965C30.0876 24.4183 30.0555 25.8464 29.8923 27.2623C29.7965 27.7896 29.6527 28.3647 29.413 28.8441C28.1413 30.5079 26.355 31.7044 24.3323 32.2472C24.2844 32.9182 24.1885 33.733 24.2365 34.4999L24.4761 34.7396C24.8596 35.0272 25.3389 35.171 25.7703 35.3148C26.8914 35.6726 27.9815 36.1215 29.0296 36.6568C29.3651 36.8485 29.6527 37.0882 29.8923 37.3758C29.6527 37.4237 29.413 37.3279 29.1254 37.2799C28.0709 36.8485 27.0644 36.3692 26.0099 35.9858L24.3323 35.3627C24.0927 35.2189 23.853 35.0272 23.7092 34.7875C23.6134 34.5479 23.6613 34.2603 23.6613 34.0206C23.6613 33.4454 23.7092 32.8703 23.9489 32.2951C23.5654 32.391 23.2299 32.4389 22.8465 32.391C22.9902 32.1992 23.2299 32.1034 23.4696 32.0075C24.3802 31.6241 25.3389 31.3844 26.2496 30.8572C27.0165 30.4258 27.7354 29.8985 28.3106 29.2754C28.6461 28.9399 28.8858 28.5565 29.0296 28.1251C29.2692 27.5978 29.3651 26.9747 29.413 26.3996C29.6047 25.2013 29.6047 24.003 29.7006 22.8527C29.7006 22.5651 29.7006 22.3254 29.7965 22.0858Z" fill="#262626"/>
<path d="M28.1658 17.1031C28.5493 17.0552 28.9327 17.1511 29.2203 17.3907C29.3641 17.5345 29.5079 17.7262 29.5079 17.918C29.5558 18.1576 29.3162 18.3973 29.0765 18.3973C28.8848 18.3493 28.7889 18.2535 28.6931 18.1097L28.2138 17.7742C28.6451 18.5411 28.4055 19.5956 27.7345 20.1228C27.3989 20.4104 26.8717 20.5062 26.5362 20.1707C26.2486 19.9311 26.1527 19.5956 26.1527 19.2121C26.0569 19.4518 25.9131 19.6435 25.8651 19.8831C25.8172 19.979 25.8172 20.0749 25.7213 20.0749C25.6255 19.8352 25.6734 19.5476 25.7693 19.26C26.0569 18.4931 26.5841 17.8221 27.3031 17.4387C27.5427 17.2469 27.8303 17.1511 28.1658 17.1031ZM18.0044 17.6304C19.2986 17.6783 20.5448 18.4931 21.072 19.6435C21.1679 19.7393 21.2638 19.9311 21.12 20.0749C20.9762 20.0749 20.8803 19.8831 20.7844 19.7873C20.5927 19.4038 20.3051 19.1162 19.9696 18.8766C20.0655 19.4038 20.0655 19.8831 19.7779 20.3625C19.5382 20.7459 19.011 20.9856 18.5796 20.9376C18.2441 20.8418 17.9086 20.698 17.6689 20.4104C17.3813 20.1228 17.2855 19.6435 17.2855 19.26C17.2855 18.9245 17.4293 18.6369 17.5731 18.3973C16.902 18.5411 16.231 18.8287 15.7038 19.26C15.56 19.308 15.4641 19.4038 15.3203 19.4038C15.1286 19.3559 15.0327 19.2121 15.0327 19.0204C15.0327 18.8766 15.1286 18.7328 15.2244 18.6369C15.6079 18.3493 15.9913 18.0618 16.4706 17.87C16.95 17.6783 17.4772 17.5824 18.0044 17.6304Z" fill="#262626"/>
<path d="M18.4848 12.5002C19.2038 12.5482 20.0186 12.7399 20.5938 13.2192C20.7855 13.363 20.9772 13.5547 21.0252 13.7464C21.0731 13.8902 21.0731 13.9861 20.9293 14.034C20.7855 14.034 20.6417 13.8902 20.5458 13.7944C20.0186 13.4109 19.3955 13.1713 18.7245 13.1713C18.341 13.1713 18.0055 13.2671 17.622 13.363C16.9031 13.5068 16.232 13.8902 15.8007 14.4654C15.6569 14.6092 15.561 14.8009 15.3214 14.8489C15.0817 14.8968 14.842 14.7051 14.842 14.4654C14.7941 14.2737 14.9379 14.082 15.0338 13.9382C15.6089 13.2192 16.4717 12.7399 17.3824 12.5482C17.7179 12.4523 18.1014 12.4523 18.4848 12.5002ZM28.3107 12.9795C28.5503 13.0754 28.79 13.3151 28.9338 13.5068C29.0776 13.6506 29.1734 13.8423 29.1734 14.034C29.1734 14.3216 28.8859 14.5133 28.5983 14.4175C28.3586 14.3216 28.3107 14.082 28.119 13.8902C27.9272 13.7464 27.6876 13.5547 27.4958 13.5068C26.9207 13.3151 26.3455 13.5547 25.9621 13.9382L25.5307 14.3695C25.5307 14.034 25.7224 13.7464 25.9621 13.5547C26.5372 12.9316 27.4958 12.692 28.3107 12.9795Z" fill="#262626"/>
<path d="M25.1943 23.4779C25.1943 23.6217 25.0984 23.7655 25.0026 23.9093C24.8108 24.1968 24.4753 24.3886 24.1398 24.4844C23.9001 24.5324 23.7084 24.3886 23.5167 24.4844C23.325 24.4844 23.1332 24.5324 22.9415 24.4365C22.8457 24.3886 22.8457 24.2448 22.9415 24.1489C23.0853 23.9572 23.325 23.8134 23.5167 23.8134C23.7084 23.7655 23.8522 23.7655 23.996 23.9093L24.0439 24.2448C24.2836 24.1489 24.3795 24.0051 24.5712 23.8613L25.1943 23.4779Z" fill="#262626"/>
<path d="M18.9151 26.0625C19.0589 26.0625 19.1548 26.1584 19.2506 26.2542L19.8738 26.5897C20.401 26.8294 20.9762 26.9732 21.5034 27.117C22.2224 27.3566 22.9413 27.4046 23.6603 27.4046C24.2355 27.4525 24.7627 27.5004 25.29 27.4525L25.4817 27.5484C24.6189 27.9797 23.5165 28.0756 22.5579 28.0277C21.4555 27.9797 20.3531 27.6442 19.3944 27.1649C19.1069 26.9732 18.7713 26.7815 18.7234 26.398C18.6755 26.2542 18.7713 26.0625 18.9151 26.0625Z" fill="#262626"/>
<path d="M20.449 4.97881C22.0567 5.07075 23.6332 5.46083 25.0983 6.12915C25.7693 6.46467 26.4883 6.80019 27.1114 7.23157C27.4949 7.47123 27.8783 7.75881 28.1659 8.09433L29.2204 9.29261C28.789 9.48433 28.3576 9.4364 27.9262 9.38847C27.1114 9.29261 26.2966 9.19674 25.4818 9.24468L25.0983 9.19674L24.7628 8.95709L24.1876 8.57364C24.1876 8.76536 24.1397 8.90916 24.0438 9.10088C23.948 9.19674 23.8521 9.24468 23.7083 9.24468C23.5166 9.19674 23.3728 9.10088 23.1811 9.10088C20.7137 8.73724 18.2031 8.78583 15.7517 9.24468H15.2245L14.3617 8.95709C14.4097 9.38847 14.5535 9.81985 14.5055 10.2033C14.4576 10.395 14.4576 10.5867 14.3617 10.7305C14.0262 11.4016 13.6428 12.0247 13.3552 12.7436C13.0197 13.5585 12.7321 14.4212 12.5404 15.284C12.5404 15.3799 12.4924 15.4757 12.3966 15.5236L11.8214 15.6195C12.061 16.0509 12.109 16.5781 12.061 17.0574C12.0131 17.6326 11.9173 18.3037 11.6297 18.783C11.9652 19.2143 12.109 19.7895 12.109 20.3647C12.1569 21.2754 12.109 22.1381 11.7735 23.0009C11.6776 23.1926 11.5338 23.4323 11.2941 23.5281C11.2462 23.5761 11.1024 23.5761 11.1024 23.4802C11.0066 23.2885 11.0066 23.0488 10.9586 22.8571C10.8628 22.1381 10.5273 21.4671 10 20.9399C9.61656 20.6043 9.18518 20.2688 8.7538 20.0292C8.46621 19.9333 8.22656 19.8374 7.9869 19.6457L7.69932 19.2623C7.12414 17.7285 6.93242 16.0509 7.12414 14.4212C7.32792 12.5112 7.93222 10.6657 8.89759 9.00502C9.3769 8.23812 9.95208 7.56709 10.5752 6.94398C11.0545 6.5126 11.5338 6.12915 12.061 5.84157L12.7321 5.60191L14.2659 5.07467L15.1766 4.97881H17.2376C18.34 4.97881 19.3466 4.88295 20.449 4.97881Z" fill="#262626"/>
</svg>
